PathFileType	4	(X/Y/Z)	 2.5Hzlow3min.trc
DataRate	CameraRate	NumFrames	NumMarkers	Units	OrigDataRate	OrigDataStartFrame	OrigNumFrames
200	200	9	39	m	200	376	1000
Frame#	Time	C7			LSH			RSH			MAN			RASI			LASI			HIPR			HIPL			RPSI			LPSI			COX			RTHI1			RTHI2			RTHI3			RTHI4			RLKN			RMKN			RSHA1			RSHA2			RSHA3			RSHA4			RHEEL			RMET5			RMET1			RTOE			LTHI1			LTHI2			LTHI3			LTHI4			LLKN			LMKN			LSHA1			LSHA2			LSHA3			LSHA4			LHEEL			LMET5			LMET1			LTOE			
		X1	Y1	Z1	X2	Y2	Z2	X3	Y3	Z3	X4	Y4	Z4	X5	Y5	Z5	X6	Y6	Z6	X7	Y7	Z7	X8	Y8	Z8	X9	Y9	Z9	X10	Y10	Z10	X11	Y11	Z11	X12	Y12	Z12	X13	Y13	Z13	X14	Y14	Z14	X15	Y15	Z15	X16	Y16	Z16	X17	Y17	Z17	X18	Y18	Z18	X19	Y19	Z19	X20	Y20	Z20	X21	Y21	Z21	X22	Y22	Z22	X23	Y23	Z23	X24	Y24	Z24	X25	Y25	Z25	X26	Y26	Z26	X27	Y27	Z27	X28	Y28	Z28	X29	Y29	Z29	X30	Y30	Z30	X31	Y31	Z31	X32	Y32	Z32	X33	Y33	Z33	X34	Y34	Z34	X35	Y35	Z35	X36	Y36	Z36	X37	Y37	Z37	X38	Y38	Z38	X39	Y39	Z39	
376	1.8800	-0.279355	1.549592	-0.526334	-0.227650	1.544566	-0.714785	-0.240614	1.533216	-0.341178	-0.132445	1.507098	-0.528258	-0.129516	1.032651	-0.422510	-0.142208	1.039579	-0.657872	-0.198287	1.111838	-0.369071	-0.197050	1.108857	-0.699510	-0.307218	1.101870	-0.492172	-0.312034	1.101964	-0.559792	-0.310035	1.101063	-0.527989	-0.214511	0.856323	-0.342168	-0.200380	0.798730	-0.337192	-0.136510	0.812280	-0.342169	-0.144113	0.872767	-0.348374	-0.183660	0.537738	-0.366614	-0.167402	0.527596	-0.478894	-0.275337	0.418454	-0.337749	-0.288167	0.378711	-0.346825	-0.228572	0.366905	-0.346932	-0.219677	0.406132	-0.341626	-0.366593	0.137135	-0.426841	-0.218641	0.062461	-0.355686	-0.165852	0.068008	-0.413927	-0.144611	0.058822	-0.407931	-0.234067	0.831446	-0.734061	-0.217243	0.771909	-0.738264	-0.153915	0.784334	-0.741968	-0.161564	0.844108	-0.737947	-0.202507	0.538614	-0.715343	-0.175357	0.527060	-0.613420	-0.303326	0.410713	-0.727010	-0.316369	0.372695	-0.722562	-0.255732	0.357995	-0.732244	-0.250828	0.401780	-0.735932	-0.378262	0.134918	-0.641968	-0.245423	0.058985	-0.737994	-0.185184	0.068349	-0.683237	-0.163195	0.058335	-0.695570	
377	1.8850	-0.279242	1.549109	-0.526314	-0.227349	1.543764	-0.714788	-0.240447	1.532422	-0.341024	-0.132385	1.506400	-0.528209	-0.129647	1.031980	-0.422532	-0.142400	1.039016	-0.657783	-0.198431	1.111122	-0.368993	-0.197288	1.108069	-0.699417	-0.307449	1.101093	-0.492025	-0.312282	1.101115	-0.559671	-0.310297	1.100267	-0.527879	-0.214190	0.855716	-0.341822	-0.199968	0.798136	-0.336989	-0.136136	0.811710	-0.342399	-0.143825	0.872188	-0.348633	-0.183492	0.537240	-0.366471	-0.167323	0.527108	-0.478823	-0.275572	0.418154	-0.337899	-0.288440	0.378500	-0.346889	-0.228876	0.366600	-0.346769	-0.219918	0.405819	-0.341548	-0.366846	0.136383	-0.426840	-0.218523	0.062643	-0.355408	-0.165649	0.068396	-0.413658	-0.144349	0.059220	-0.407676	-0.233314	0.830687	-0.734288	-0.216389	0.771156	-0.738304	-0.153052	0.783642	-0.741374	-0.160787	0.843412	-0.737443	-0.202224	0.538211	-0.715280	-0.174936	0.526553	-0.613531	-0.303533	0.410566	-0.726540	-0.316613	0.372580	-0.722082	-0.256080	0.357772	-0.732207	-0.251113	0.401547	-0.735849	-0.378403	0.134176	-0.642071	-0.244726	0.059181	-0.737707	-0.184777	0.068864	-0.682738	-0.162676	0.059021	-0.694981	
378	1.8900	-0.279115	1.548411	-0.526294	-0.227033	1.542672	-0.714812	-0.240284	1.531362	-0.340852	-0.132324	1.505442	-0.528160	-0.129770	1.031050	-0.422560	-0.142582	1.038201	-0.657678	-0.198588	1.110109	-0.368897	-0.197517	1.107033	-0.699330	-0.307692	1.100029	-0.491868	-0.312546	1.099963	-0.559548	-0.310577	1.099181	-0.527761	-0.213853	0.854872	-0.341438	-0.199516	0.797273	-0.336818	-0.135736	0.810902	-0.342641	-0.143524	0.871369	-0.348886	-0.183311	0.536524	-0.366323	-0.167263	0.526378	-0.478776	-0.275803	0.417632	-0.338065	-0.288698	0.378086	-0.346943	-0.229175	0.366078	-0.346590	-0.220149	0.405274	-0.341459	-0.367176	0.135532	-0.426778	-0.218536	0.062516	-0.355181	-0.165573	0.068326	-0.413417	-0.144268	0.059107	-0.407439	-0.232508	0.829725	-0.734523	-0.215470	0.770206	-0.738375	-0.152130	0.782761	-0.740814	-0.159968	0.842524	-0.736956	-0.201967	0.537598	-0.715232	-0.174457	0.525853	-0.613663	-0.303735	0.410200	-0.726126	-0.316842	0.372235	-0.721650	-0.256406	0.357333	-0.732187	-0.251386	0.401100	-0.735789	-0.378610	0.133358	-0.642177	-0.244104	0.059074	-0.737283	-0.184471	0.069010	-0.682071	-0.162243	0.059322	-0.694205	
379	1.8950	-0.278978	1.547489	-0.526277	-0.226741	1.541303	-0.714877	-0.240125	1.530035	-0.340665	-0.132276	1.504235	-0.528113	-0.129891	1.029861	-0.422591	-0.142749	1.037148	-0.657563	-0.198758	1.108816	-0.368784	-0.197728	1.105756	-0.699250	-0.307930	1.098664	-0.491711	-0.312826	1.098531	-0.559425	-0.310880	1.097819	-0.527651	-0.213522	0.853796	-0.341026	-0.199038	0.796156	-0.336686	-0.135316	0.809856	-0.342888	-0.143221	0.870314	-0.349127	-0.183100	0.535583	-0.366173	-0.167204	0.525399	-0.478748	-0.276007	0.416867	-0.338241	-0.288922	0.377439	-0.346976	-0.229446	0.365309	-0.346406	-0.220352	0.404469	-0.341348	-0.367582	0.134614	-0.426661	-0.218725	0.062052	-0.355019	-0.165679	0.067795	-0.413254	-0.144329	0.058573	-0.407395	-0.231662	0.828559	-0.734759	-0.214510	0.769061	-0.738459	-0.151177	0.781700	-0.740286	-0.159124	0.841451	-0.736495	-0.201709	0.536775	-0.715193	-0.173934	0.524949	-0.613786	-0.303889	0.409584	-0.725792	-0.317025	0.371630	-0.721289	-0.256666	0.356644	-0.732170	-0.251601	0.400415	-0.735745	-0.378838	0.132441	-0.642228	-0.243621	0.058611	-0.736739	-0.184293	0.068735	-0.681291	-0.161951	0.059168	-0.693306	
380	1.9000	-0.278838	1.546333	-0.526263	-0.226472	1.539661	-0.714978	-0.239967	1.528446	-0.340464	-0.132238	1.502775	-0.528068	-0.130014	1.028420	-0.422624	-0.142906	1.035858	-0.657438	-0.198942	1.107253	-0.368657	-0.197920	1.104246	-0.699178	-0.308181	1.097028	-0.491563	-0.313124	1.096830	-0.559306	-0.311214	1.096200	-0.527560	-0.213179	0.852470	-0.340674	-0.198558	0.794798	-0.336566	-0.134896	0.808575	-0.343118	-0.142918	0.869018	-0.349358	-0.182838	0.534395	-0.366028	-0.167128	0.524166	-0.478738	-0.276157	0.415836	-0.338408	-0.289096	0.376517	-0.346972	-0.229663	0.364270	-0.346226	-0.220502	0.403391	-0.341236	-0.368060	0.133661	-0.426496	-0.219131	0.061150	-0.354922	-0.165970	0.066800	-0.413202	-0.144625	0.057523	-0.407437	-0.230798	0.827201	-0.734981	-0.213527	0.767729	-0.738549	-0.150208	0.780465	-0.739798	-0.158269	0.840194	-0.736059	-0.201414	0.535728	-0.715162	-0.173395	0.523835	-0.613865	-0.303955	0.408692	-0.725559	-0.317123	0.370745	-0.721018	-0.256816	0.355694	-0.732135	-0.251712	0.399455	-0.735708	-0.379067	0.131428	-0.642173	-0.243342	0.057752	-0.736096	-0.184271	0.067977	-0.680442	-0.161848	0.058475	-0.692327	
381	1.9050	-0.278698	1.544935	-0.526252	-0.226231	1.537751	-0.715112	-0.239808	1.526593	-0.340220	-0.132210	1.501061	-0.528028	-0.130147	1.026733	-0.422657	-0.143059	1.034334	-0.657305	-0.199134	1.105435	-0.368519	-0.198101	1.102506	-0.699114	-0.308432	1.095117	-0.491436	-0.313438	1.094873	-0.559192	-0.311573	1.094335	-0.527486	-0.212843	0.850891	-0.340385	-0.198092	0.793211	-0.336460	-0.134489	0.807065	-0.343327	-0.142623	0.867488	-0.349567	-0.182505	0.532964	-0.365885	-0.167012	0.522680	-0.478741	-0.276213	0.414542	-0.338504	-0.289192	0.375335	-0.346923	-0.229801	0.362952	-0.346056	-0.220567	0.402031	-0.341115	-0.368615	0.132710	-0.426286	-0.219816	0.059767	-0.354913	-0.166527	0.065217	-0.413172	-0.145214	0.055779	-0.407516	-0.229926	0.825650	-0.735185	-0.212541	0.766212	-0.738636	-0.149237	0.779048	-0.739350	-0.157424	0.838758	-0.735663	-0.201044	0.534438	-0.715138	-0.172851	0.522502	-0.613877	-0.303894	0.407512	-0.725445	-0.317104	0.369581	-0.720854	-0.256820	0.354455	-0.732064	-0.251671	0.398206	-0.735676	-0.379293	0.130326	-0.641987	-0.243319	0.056465	-0.735372	-0.184438	0.066706	-0.679558	-0.161972	0.057196	-0.691310	
382	1.9100	-0.278563	1.543278	-0.526245	-0.226021	1.535586	-0.715274	-0.239648	1.524485	-0.339932	-0.132155	1.499078	-0.527988	-0.130297	1.024803	-0.422690	-0.143211	1.032570	-0.657164	-0.199332	1.103368	-0.368377	-0.198271	1.100541	-0.699060	-0.308688	1.092943	-0.491329	-0.313771	1.092677	-0.559088	-0.311946	1.092212	-0.527416	-0.212516	0.849065	-0.340168	-0.197643	0.791389	-0.336373	-0.134098	0.805326	-0.343511	-0.142339	0.865735	-0.349753	-0.182083	0.531282	-0.365741	-0.166840	0.520943	-0.478756	-0.276153	0.412996	-0.338527	-0.289201	0.373884	-0.346819	-0.229844	0.361362	-0.345894	-0.220529	0.400402	-0.340987	-0.369271	0.131784	-0.426059	-0.220816	0.057892	-0.355004	-0.167399	0.063041	-0.413224	-0.146139	0.053405	-0.407713	-0.229066	0.823904	-0.735364	-0.211565	0.764515	-0.738719	-0.148283	0.777450	-0.738952	-0.156594	0.837145	-0.735298	-0.200565	0.532894	-0.715121	-0.172310	0.520939	-0.613808	-0.303656	0.406044	-0.725466	-0.316926	0.368128	-0.720817	-0.256646	0.352914	-0.731964	-0.251443	0.396648	-0.735643	-0.379561	0.129186	-0.641714	-0.243578	0.054755	-0.734588	-0.184814	0.064918	-0.678663	-0.162354	0.055314	-0.690282	
383	1.9150	-0.278434	1.541354	-0.526240	-0.225844	1.533164	-0.715459	-0.239485	1.522130	-0.339613	-0.132107	1.496842	-0.527952	-0.130466	1.022636	-0.422718	-0.143366	1.030576	-0.657023	-0.199534	1.101070	-0.368229	-0.198431	1.098355	-0.699015	-0.308945	1.090509	-0.491246	-0.314121	1.090245	-0.558997	-0.312341	1.089858	-0.527371	-0.212208	0.846994	-0.340028	-0.197214	0.789335	-0.336305	-0.133724	0.803357	-0.343667	-0.142072	0.863757	-0.349910	-0.181543	0.529343	-0.365599	-0.166595	0.518958	-0.478782	-0.275951	0.411205	-0.338424	-0.289110	0.372188	-0.346645	-0.229777	0.359497	-0.345740	-0.220368	0.398507	-0.340842	-0.370036	0.130881	-0.425813	-0.222096	0.055534	-0.355235	-0.168587	0.060355	-0.413448	-0.147416	0.050412	-0.408047	-0.228232	0.821961	-0.735510	-0.210612	0.762624	-0.738794	-0.147356	0.775667	-0.738601	-0.155793	0.835344	-0.734963	-0.199945	0.531078	-0.715110	-0.171761	0.519138	-0.613646	-0.303215	0.404283	-0.725629	-0.316563	0.366393	-0.720918	-0.256272	0.351070	-0.731836	-0.250996	0.394777	-0.735611	-0.379897	0.127995	-0.641374	-0.244131	0.052657	-0.733775	-0.185379	0.062682	-0.677723	-0.162987	0.052898	-0.689233	
384	1.9200	-0.278314	1.539163	-0.526236	-0.225675	1.530484	-0.715647	-0.239322	1.519539	-0.339273	-0.132058	1.494354	-0.527923	-0.130661	1.020242	-0.422735	-0.143540	1.028336	-0.656868	-0.199745	1.098546	-0.368080	-0.198587	1.095948	-0.698975	-0.309238	1.087864	-0.491179	-0.314483	1.087589	-0.558919	-0.312752	1.087272	-0.527331	-0.211911	0.844674	-0.339959	-0.196804	0.787046	-0.336258	-0.133358	0.801171	-0.343791	-0.141823	0.861564	-0.350034	-0.180863	0.527147	-0.365457	-0.166266	0.516735	-0.478816	-0.275599	0.409185	-0.338195	-0.288909	0.370273	-0.346392	-0.229597	0.357376	-0.345590	-0.220068	0.396363	-0.340690	-0.370938	0.129949	-0.425555	-0.223657	0.052677	-0.355614	-0.170153	0.057159	-0.413777	-0.149094	0.046786	-0.408492	-0.227430	0.819826	-0.735622	-0.209690	0.760534	-0.738860	-0.146457	0.773695	-0.738303	-0.155029	0.833347	-0.734661	-0.199151	0.528980	-0.715109	-0.171200	0.517093	-0.613391	-0.302555	0.402240	-0.725933	-0.316006	0.364389	-0.721160	-0.255692	0.348934	-0.731686	-0.250312	0.392595	-0.735586	-0.380369	0.126736	-0.641026	-0.244959	0.050302	-0.733012	-0.186060	0.060184	-0.676696	-0.163728	0.050160	-0.688102	
